<?xml version="1.0" encoding="utf-8"?>
<!-- Generator: Adobe Illustrator 18.0.0, SVG Export Plug-In . SVG Version: 6.00 Build 0)  -->
<!DOCTYPE svg PUBLIC "-//W3C//DTD SVG 1.1//EN" "http://www.w3.org/Graphics/SVG/1.1/DTD/svg11.dtd">
<svg version="1.1" xmlns="http://www.w3.org/2000/svg" xmlns:xlink="http://www.w3.org/1999/xlink" x="0px" y="0px"
	 viewBox="0 0 302 100.8" enable-background="new 0 0 302 100.8" xml:space="preserve">
<g id="Layer_1">
</g>
<g id="Layer_2">
</g>
<g id="Layer_3">
	<g id="Layer_4">
	</g>
</g>
<g id="Layer_5">
	<g>
		<path fill="#EA178E" d="M154.6,92.1c-2.3,5.4-7.9,8.8-13.5,8.8c-8.5,0-15.3-7.1-15.3-15.4c0-8.1,6.7-15.1,15.2-15.1
			c4.9,0,11,2.5,13.8,8.9h-6.2c-2.1-2.4-4.6-3.9-7.8-3.9c-4.8,0-9.5,4.3-9.5,10.1c0,5.5,4.6,10.2,9.7,10.2c3.9,0,6.1-2.3,7.4-3.7
			H154.6z"/>
		<path fill="#EA178E" d="M170.4,70.3c8.3,0,15.3,6.7,15.3,15.3c0,8.4-6.9,15.2-15.3,15.2c-8.4,0-15.3-6.8-15.3-15.2
			C155.1,77,162.1,70.3,170.4,70.3z M170.4,95.8c5.6,0,9.9-4.7,9.9-10.1c0-5.6-4.4-10.2-9.9-10.2c-5.5,0-9.9,4.6-9.9,10.2
			C160.5,91.1,164.9,95.8,170.4,95.8z"/>
		<path fill="#EA178E" d="M188,70.9h6.7c7.2,0,10.3,1.9,12,3.4c2.8,2.4,4.8,6.7,4.8,11.3c0,5.3-2.7,10.3-7,12.7
			c-2.7,1.5-6.5,1.9-9.8,1.9H188V70.9z M193.4,95.2h1.2c2.9,0,4.8-0.2,7.1-1.4c2.9-1.6,4.4-5,4.4-8.1c0-2.9-1.2-5.6-3.1-7.2
			c-2.3-2.1-5.1-2.5-8.5-2.5h-1V95.2z"/>
		<path fill="#EA178E" d="M214.3,70.9H230V76h-10.3v7.2h9.9v5.1h-9.9v6.9H230v5.1h-15.8V70.9z"/>
		<path fill="#262626" d="M154.6,59.1c-3.1,5.7-8.8,8.2-13.5,8.2c-8.2,0-15.3-6.5-15.3-15.1c0-8.7,6.9-15.2,15.3-15.2
			c7.5,0,12.3,5.3,13.4,8h-3.3c-3.2-4.8-8.4-5.3-10.2-5.3c-6.9,0-12.3,6-12.3,12.6c0,6.9,6,12.4,12.4,12.4c1.5,0,6.3-0.2,10.3-5.5
			H154.6z"/>
		<path fill="#262626" d="M170.1,36.9c8.2,0,15.5,6.5,15.5,15.2c0,8.6-7.3,15.2-15.5,15.2c-8.3,0-15.5-6.8-15.5-15
			C154.6,43,162.3,36.9,170.1,36.9z M170.1,64.6c6.8,0,12.6-5.5,12.6-12.5c0-6.9-5.7-12.6-12.6-12.6c-6.6,0-12.6,5.4-12.6,12.7
			C157.5,58.9,163.3,64.6,170.1,64.6z"/>
		<path fill="#262626" d="M186.8,37.4h4.5l10.7,25l10.7-25h4.5v29.3h-2.9V40.6h-0.1l-11,26.1h-2.5l-10.9-26.1h-0.1v26.1h-2.9V37.4z"
			/>
		<path fill="#262626" d="M214.3,37.4h4.5l10.7,25l10.7-25h4.5v29.3h-2.9V40.6h-0.1l-11,26.1h-2.5l-10.9-26.1h-0.1v26.1h-2.9V37.4z"
			/>
		<path fill="#262626" d="M261.5,36.9c8.2,0,15.5,6.5,15.5,15.2c0,8.6-7.3,15.2-15.5,15.2c-8.3,0-15.5-6.8-15.5-15
			C246,43,253.7,36.9,261.5,36.9z M261.5,64.6c6.8,0,12.6-5.5,12.6-12.5c0-6.9-5.7-12.6-12.6-12.6c-6.6,0-12.6,5.4-12.6,12.7
			C249,58.9,254.7,64.6,261.5,64.6z"/>
		<path fill="#262626" d="M278.6,37.4h4L299,61.7h0.1V37.4h2.9v29.3H299l-17.4-25.8h-0.1v25.8h-2.9V37.4z"/>
		<g>
			<g>
				<defs>
					<path id="SVGID_149_" d="M33.6,100.8c-3.8,0-7.4-2-9.3-5.4L1.4,55.8c-1.9-3.3-1.9-7.4,0-10.7L24.3,5.4C26.2,2.1,29.8,0,33.6,0
						h45.8c3.8,0,7.4,2,9.3,5.4L111.6,45c1.9,3.3,1.9,7.4,0,10.7L88.7,95.4c-1.9,3.3-5.5,5.4-9.3,5.4H33.6z"/>
				</defs>
				<clipPath id="SVGID_2_">
					<use xlink:href="#SVGID_149_"  overflow="visible"/>
				</clipPath>
				<g clip-path="url(#SVGID_2_)">
					<polygon fill="#EA178E" points="85.6,0 56.5,50.4 85.6,100.8 114.7,50.4 					"/>
					<polygon fill="#F0D175" points="27.4,0 -1.7,50.4 56.5,50.4 85.6,0 					"/>
					<polygon fill="#28ADE3" points="-1.7,50.4 56.5,50.4 85.6,100.8 27.4,100.8 					"/>
				</g>
			</g>
			<g>
				<defs>
					<path id="SVGID_151_" d="M80.6,20.1c2.3,0,4.4,1.2,5.6,3.2l13.7,23.8c1.2,2,1.2,4.5,0,6.5L86.1,77.4c-1.2,2-3.3,3.2-5.6,3.2
						H53.1c-2.3,0-4.4-1.2-5.6-3.2L33.7,53.6c-1.2-2-1.2-4.5,0-6.5l13.7-23.8c1.2-2,3.3-3.2,5.6-3.2H80.6z"/>
				</defs>
				<clipPath id="SVGID_4_">
					<use xlink:href="#SVGID_151_"  overflow="visible"/>
				</clipPath>
				<g clip-path="url(#SVGID_4_)">
					<polygon fill="#EA178E" points="49.3,80.7 66.8,50.4 49.3,20.1 31.9,50.4 					"/>
					<polygon fill="#F0D175" points="84.3,80.7 101.8,50.4 66.8,50.4 49.3,80.7 					"/>
					<polygon fill="#28ADE3" points="101.8,50.4 66.8,50.4 49.3,20.1 84.3,20.1 					"/>
				</g>
			</g>
			<g opacity="0.33">
				<defs>
					<path id="SVGID_153_" opacity="0.33" d="M33.6,100.8c-3.8,0-7.4-2-9.3-5.4L1.4,55.8c-1.9-3.3-1.9-7.4,0-10.7L24.3,5.4
						C26.2,2.1,29.8,0,33.6,0h45.8c3.8,0,7.4,2,9.3,5.4L111.6,45c1.9,3.3,1.9,7.4,0,10.7L88.7,95.4c-1.9,3.3-5.5,5.4-9.3,5.4H33.6z"
						/>
				</defs>
				<clipPath id="SVGID_6_">
					<use xlink:href="#SVGID_153_"  overflow="visible"/>
				</clipPath>
				<g clip-path="url(#SVGID_6_)">
					<polygon fill="#EA178E" points="85.6,0 56.5,50.4 85.6,100.8 114.7,50.4 					"/>
					<polygon fill="#F0D175" points="27.4,0 -1.7,50.4 56.5,50.4 85.6,0 					"/>
					<polygon fill="#28ADE3" points="-1.7,50.4 56.5,50.4 85.6,100.8 27.4,100.8 					"/>
				</g>
			</g>
		</g>
	</g>
</g>
</svg>
