<?xml version="1.0" encoding="UTF-8" standalone="no"?>
<!-- Generator: Adobe Illustrator 18.0.0, SVG Export Plug-In . SVG Version: 6.00 Build 0)  -->

<svg
   xmlns:dc="http://purl.org/dc/elements/1.1/"
   xmlns:cc="http://creativecommons.org/ns#"
   xmlns:rdf="http://www.w3.org/1999/02/22-rdf-syntax-ns#"
   xmlns:svg="http://www.w3.org/2000/svg"
   xmlns="http://www.w3.org/2000/svg"
   xmlns:xlink="http://www.w3.org/1999/xlink"
   xmlns:sodipodi="http://sodipodi.sourceforge.net/DTD/sodipodi-0.dtd"
   xmlns:inkscape="http://www.inkscape.org/namespaces/inkscape"
   version="1.1"
   x="0px"
   y="0px"
   viewBox="0 0 113.05 100.8"
   enable-background="new 0 0 302 100.8"
   xml:space="preserve"
   id="svg2"
   inkscape:version="0.48.4 r9939"
   width="100%"
   height="100%"
   sodipodi:docname="cube.svg"><metadata
     id="metadata85"><rdf:RDF><cc:Work
         rdf:about=""><dc:format>image/svg+xml</dc:format><dc:type
           rdf:resource="http://purl.org/dc/dcmitype/StillImage" /></cc:Work></rdf:RDF></metadata><defs
     id="defs83" /><sodipodi:namedview
     pagecolor="#ffffff"
     bordercolor="#666666"
     borderopacity="1"
     objecttolerance="10"
     gridtolerance="10"
     guidetolerance="10"
     inkscape:pageopacity="0"
     inkscape:pageshadow="2"
     inkscape:window-width="640"
     inkscape:window-height="480"
     id="namedview81"
     showgrid="false"
     fit-margin-top="0"
     fit-margin-left="0"
     fit-margin-right="0"
     fit-margin-bottom="0"
     inkscape:zoom="1.0033113"
     inkscape:cx="151.025"
     inkscape:cy="50.400002"
     inkscape:window-x="0"
     inkscape:window-y="27"
     inkscape:window-maximized="0"
     inkscape:current-layer="svg2" /><g
     id="Layer_1"
     transform="translate(0.025,-1.5258789e-6)" /><g
     id="Layer_2"
     transform="translate(0.025,-1.5258789e-6)" /><g
     id="Layer_3"
     transform="translate(0.025,-1.5258789e-6)"><g
       id="Layer_4" /></g><g
     id="g31"
     transform="translate(0.025,-1.5258789e-6)"><g
       id="g33"><defs
         id="defs35"><path
           id="SVGID_149_"
           d="m 33.6,100.8 c -3.8,0 -7.4,-2 -9.3,-5.4 L 1.4,55.8 c -1.9,-3.3 -1.9,-7.4 0,-10.7 L 24.3,5.4 C 26.2,2.1 29.8,0 33.6,0 h 45.8 c 3.8,0 7.4,2 9.3,5.4 L 111.6,45 c 1.9,3.3 1.9,7.4 0,10.7 L 88.7,95.4 c -1.9,3.3 -5.5,5.4 -9.3,5.4 H 33.6 z"
           inkscape:connector-curvature="0" /></defs><clipPath
         id="SVGID_2_"><use
           xlink:href="#SVGID_149_"
           overflow="visible"
           id="use39"
           style="overflow:visible"
           x="0"
           y="0"
           width="302"
           height="100.8" /></clipPath><g
         clip-path="url(#SVGID_2_)"
         id="g41"><polygon
           points="114.7,50.4 85.6,0 56.5,50.4 85.6,100.8 "
           id="polygon43"
           style="fill:#ea178e" /><polygon
           points="85.6,0 27.4,0 -1.7,50.4 56.5,50.4 "
           id="polygon45"
           style="fill:#f0d175" /><polygon
           points="27.4,100.8 -1.7,50.4 56.5,50.4 85.6,100.8 "
           id="polygon47"
           style="fill:#28ade3" /></g></g><g
       id="g49"><defs
         id="defs51"><path
           id="SVGID_151_"
           d="m 80.6,20.1 c 2.3,0 4.4,1.2 5.6,3.2 l 13.7,23.8 c 1.2,2 1.2,4.5 0,6.5 L 86.1,77.4 c -1.2,2 -3.3,3.2 -5.6,3.2 H 53.1 c -2.3,0 -4.4,-1.2 -5.6,-3.2 L 33.7,53.6 c -1.2,-2 -1.2,-4.5 0,-6.5 L 47.4,23.3 c 1.2,-2 3.3,-3.2 5.6,-3.2 h 27.6 z"
           inkscape:connector-curvature="0" /></defs><clipPath
         id="SVGID_4_"><use
           xlink:href="#SVGID_151_"
           overflow="visible"
           id="use55"
           style="overflow:visible"
           x="0"
           y="0"
           width="302"
           height="100.8" /></clipPath><g
         clip-path="url(#SVGID_4_)"
         id="g57"><polygon
           points="31.9,50.4 49.3,80.7 66.8,50.4 49.3,20.1 "
           id="polygon59"
           style="fill:#ea178e" /><polygon
           points="49.3,80.7 84.3,80.7 101.8,50.4 66.8,50.4 "
           id="polygon61"
           style="fill:#f0d175" /><polygon
           points="84.3,20.1 101.8,50.4 66.8,50.4 49.3,20.1 "
           id="polygon63"
           style="fill:#28ade3" /></g></g><g
       id="g65"
       style="opacity:0.33000004"><defs
         id="defs67"><path
           id="SVGID_153_"
           d="m 33.6,100.8 c -3.8,0 -7.4,-2 -9.3,-5.4 L 1.4,55.8 c -1.9,-3.3 -1.9,-7.4 0,-10.7 L 24.3,5.4 C 26.2,2.1 29.8,0 33.6,0 h 45.8 c 3.8,0 7.4,2 9.3,5.4 L 111.6,45 c 1.9,3.3 1.9,7.4 0,10.7 L 88.7,95.4 c -1.9,3.3 -5.5,5.4 -9.3,5.4 H 33.6 z"
           inkscape:connector-curvature="0"
           style="opacity:0.33000004" /></defs><clipPath
         id="SVGID_6_"><use
           xlink:href="#SVGID_153_"
           overflow="visible"
           id="use71"
           style="overflow:visible"
           x="0"
           y="0"
           width="302"
           height="100.8" /></clipPath><g
         clip-path="url(#SVGID_6_)"
         id="g73"><polygon
           points="114.7,50.4 85.6,0 56.5,50.4 85.6,100.8 "
           id="polygon75"
           style="fill:#ea178e" /><polygon
           points="85.6,0 27.4,0 -1.7,50.4 56.5,50.4 "
           id="polygon77"
           style="fill:#f0d175" /><polygon
           points="27.4,100.8 -1.7,50.4 56.5,50.4 85.6,100.8 "
           id="polygon79"
           style="fill:#28ade3" /></g></g></g></svg>